<?xml version="1.0" encoding="UTF-8"?>
<svg width="16px" height="16px" viewBox="0 0 16 16" version="1.1" xmlns="http://www.w3.org/2000/svg" xmlns:xlink="http://www.w3.org/1999/xlink">
    <title>模板管理</title>
    <g id="页面-1" stroke="none" stroke-width="1" fill="none" fill-rule="evenodd">
        <g id="模板管理" transform="translate(-47.000000, -167.000000)" fill-rule="nonzero">
            <g id="侧边导航" transform="translate(0.000000, 110.000000)">
                <g id="模板管理" transform="translate(47.000000, 57.000000)">
                    <rect id="矩形" fill="#000000" opacity="0" x="0" y="0" width="16" height="16"></rect>
                    <path d="M1.14246783,0 L6.28973086,0 C6.91945817,0.00168722978 7.42880084,0.551724138 7.42880084,1.22999051 L7.42880084,4.30665401 C7.42963831,4.63397659 7.31009115,4.94780133 7.09541138,5.17979542 C6.88073162,5.41178952 6.58944065,5.54170621 6.28636333,5.54170621 L1.1391003,5.54170621 C0.83602299,5.5408626 0.545573898,5.41010229 0.331736016,5.17895181 C0.117898134,4.94695771 -0.00164902787,4.63397659 1.7186751e-05,4.30749763 L1.7186751e-05,1.22999051 C1.7186751e-05,0.550880523 0.511898641,0 1.14246783,0 Z M9.71366261,10.4582938 L14.8609256,10.4582938 C15.490653,10.459981 15.9999956,11.0100179 15.9999956,11.6882843 L15.9999956,14.7649478 C16.0008331,15.0922704 15.8812859,15.4060951 15.6666062,15.6380892 C15.4519264,15.8700833 15.1606354,16 14.8575581,16 L9.71113697,16 C9.40805966,15.9991564 9.11761057,15.8683961 8.90377268,15.636402 C8.6899348,15.4052515 8.57038764,15.0914268 8.57205385,14.7649478 L8.57205385,11.6882843 C8.57205385,11.3618053 8.69246045,11.0496678 8.90629833,10.8185173 C9.12013621,10.5873669 9.4105853,10.4582938 9.71366261,10.4582938 Z M1.14246783,6.76579142 L6.28973086,6.76579142 C6.91945817,6.76747865 7.42879643,7.31751555 7.42879643,7.99578193 L7.42879643,14.7632606 C7.42879643,15.0897395 7.30840738,15.401877 7.0945695,15.6330275 C6.88073162,15.8633344 6.58944065,15.9932511 6.28720522,15.9932511 L1.1391003,15.9932511 C0.509372997,15.9915639 3.47349801e-05,15.4415269 3.47349801e-05,14.7632606 L3.47349801e-05,7.99578193 C3.47349801e-05,7.66930296 0.120423779,7.35716545 0.334261661,7.12601497 C0.548941424,6.89570811 0.839390515,6.76579142 1.14246783,6.76579142 Z M9.71366261,0 L14.8609256,0 C15.490653,0.00168722978 15.9999912,0.551724138 15.9999912,1.22999051 L15.9999912,7.99746916 C15.9999912,8.32394812 15.8796022,8.63608563 15.6657643,8.86723611 C15.4519264,9.09754297 15.1606354,9.22745966 14.8584,9.22745966 L9.71197885,9.22745966 C9.08225155,9.22577243 8.57290913,8.67573553 8.57290913,7.99746916 L8.57290913,1.22999051 C8.57122952,0.550880523 9.08225155,0 9.71366261,0 L9.71366261,0 Z" id="形状" fill="#FFFFFF"></path>
                </g>
            </g>
        </g>
    </g>
</svg>