<?xml version="1.0" encoding="UTF-8"?>
<svg width="16px" height="16px" viewBox="0 0 16 16" version="1.1" xmlns="http://www.w3.org/2000/svg" xmlns:xlink="http://www.w3.org/1999/xlink">
    <title>关闭</title>
    <g id="页面-1" stroke="none" stroke-width="1" fill="none" fill-rule="evenodd">
        <g id="模板管理-模板配置" transform="translate(-1538.000000, -452.000000)" fill-rule="nonzero">
            <g id="编组-10" transform="translate(1176.000000, 298.000000)">
                <g id="编组-9" transform="translate(362.000000, 128.000000)">
                    <g id="关闭" transform="translate(0.000000, 26.000000)">
                        <rect id="矩形" fill="#000000" opacity="0" x="0" y="0" width="16" height="16"></rect>
                        <path d="M13.677143,11.8701793 L13.6832828,11.8701793 L13.6832828,11.8332379 L13.677143,11.8701793 Z M14.4976026,7.99996802 C14.4976026,4.41690933 11.5824911,1.50246931 8.00011992,1.50246931 C4.41685338,1.50246931 1.50241336,4.41690933 1.50241336,7.99996802 C1.50241336,11.5827869 4.41685338,14.4974827 8.00011992,14.4974827 C11.5824751,14.4974827 14.4976026,11.5827869 14.4976026,7.99996802 M8.00011992,13.5651868 C4.93175228,13.5651868 2.43491713,11.067888 2.43491713,7.99996802 C2.43491713,4.93161636 4.93175227,2.43500506 8.00011992,2.43500506 C11.0680079,2.43500506 13.564875,4.93161636 13.564875,7.99996802 C13.564875,11.067888 11.0680079,13.5651868 8.00011992,13.5651868 M10.662171,10.0348124 L8.6530852,8.01976259 L10.6603323,6.03483637 C10.8425448,5.85492636 10.8439198,5.56088572 10.6639938,5.37865727 C10.4840838,5.19620497 10.1895795,5.19481391 10.007335,5.37518762 L7.99826517,7.36243227 L6.01911105,5.37704236 C5.83782595,5.19574128 5.54421703,5.19482991 5.36246825,5.37611498 C5.18116717,5.55765591 5.18116717,5.85123286 5.36154088,6.03254992 L7.33839256,8.0151737 L5.34590348,9.98601348 C5.16367503,10.1663872 5.16183628,10.4595324 5.34222598,10.6417929 C5.43333222,10.7338265 5.55206772,10.7798113 5.67169861,10.7798113 C5.78950673,10.7798113 5.90821025,10.7347378 5.99842109,10.6459181 L7.99366033,8.67229617 L10.0045849,10.6905598 C10.0952434,10.7811864 10.2144106,10.8267715 10.3335938,10.8267715 C10.4523293,10.8267715 10.5705532,10.7811864 10.6612277,10.6914712 C10.8425448,10.5106498 10.8429765,10.2170249 10.662171,10.0348124" id="形状" fill="#A4A4A4"></path>
                    </g>
                </g>
            </g>
        </g>
    </g>
</svg>