<?xml version="1.0" encoding="UTF-8"?>
<svg width="16px" height="16px" viewBox="0 0 16 16" version="1.1" xmlns="http://www.w3.org/2000/svg" xmlns:xlink="http://www.w3.org/1999/xlink">
    <title>编辑</title>
    <g id="页面-1" stroke="none" stroke-width="1" fill="none" fill-rule="evenodd">
        <g id="模板管理-模板配置" transform="translate(-1538.000000, -426.000000)" fill-rule="nonzero">
            <g id="编组-10" transform="translate(1176.000000, 298.000000)">
                <g id="编辑" transform="translate(362.000000, 128.000000)">
                    <rect id="矩形" fill="#000000" opacity="0" x="0" y="0" width="16" height="16"></rect>
                    <path d="M13.4798333,1.81316667 C13.6053706,1.68318838 13.7912723,1.63106037 13.966087,1.67681809 C14.1409017,1.72257581 14.2774242,1.85909829 14.3231819,2.03391301 C14.3689396,2.20872773 14.3168116,2.39462944 14.1868333,2.52016667 L7.11633333,9.59083333 C6.92105465,9.78611201 6.60444535,9.78611201 6.40916667,9.59083333 C6.21388799,9.39555465 6.21388799,9.07894535 6.40916667,8.88366667 L13.4798333,1.81333333 L13.4798333,1.81316667 Z M13.3333333,7 C13.3333333,6.72385763 13.557191,6.5 13.8333333,6.5 C14.1094757,6.5 14.3333333,6.72385763 14.3333333,7 L14.3333333,12.5 C14.3333333,13.5125 13.5125,14.3333333 12.5,14.3333333 L3.5,14.3333333 C2.4875,14.3333333 1.66666667,13.5125 1.66666667,12.5 L1.66666667,3.5 C1.66666667,2.4875 2.4875,1.66666667 3.5,1.66666667 L8.83333333,1.66666667 C9.1094757,1.66666667 9.33333333,1.8905243 9.33333333,2.16666667 C9.33333333,2.44280905 9.1094757,2.66666667 8.83333333,2.66666667 L3.5,2.66666667 C3.03976271,2.66666667 2.66666667,3.03976271 2.66666667,3.5 L2.66666667,12.5 C2.66666667,12.9602373 3.03976271,13.3333333 3.5,13.3333333 L12.5,13.3333333 C12.9602373,13.3333333 13.3333333,12.9602373 13.3333333,12.5 L13.3333333,7 Z" id="形状" fill="#A4A4A4"></path>
                </g>
            </g>
        </g>
    </g>
</svg>