<?xml version="1.0" encoding="UTF-8"?>
<svg width="16px" height="16px" viewBox="0 0 16 16" version="1.1" xmlns="http://www.w3.org/2000/svg" xmlns:xlink="http://www.w3.org/1999/xlink">
    <title>首页</title>
    <g id="页面-1" stroke="none" stroke-width="1" fill="none" fill-rule="evenodd" opacity="0.604387">
        <g id="工单结算-工单月度考核计划" transform="translate(-20.000000, -93.000000)" fill="#FFFFFF" fill-rule="nonzero">
            <g id="侧边导航备份" transform="translate(0.000000, 81.000000)">
                <g id="首页" transform="translate(20.000000, 12.000000)">
                    <path d="M15.2982137,4.71571842 L8.9330485,0.290602608 C8.3712961,-0.0970003975 7.62818913,-0.09685572 7.06658788,0.290965994 L0.701786297,4.71571842 C0.2621085,5.02158433 0,5.52309534 0,6.05847961 L0,14.632891 C0.00040044378,15.3873331 0.611948065,15.9989979 1.36684697,16 L14.6327894,16 C15.3878303,15.9991982 15.9995992,15.3874748 16,14.632891 L16,6.05847961 C15.999817,5.52314106 15.7377475,5.02171104 15.2982137,4.71571842 L15.2982137,4.71571842 Z M5.98590973,14.9098015 L5.98590973,9.9977303 C5.98590973,9.69719891 6.23026226,9.45263104 6.53097586,9.45263104 L9.46902414,9.45263104 C9.76937412,9.45263104 10.0140903,9.69719891 10.0140903,9.9977303 L10.0140903,14.9098015 L5.98590973,14.9098015 L5.98590973,14.9098015 Z M14.9098677,14.632891 C14.9098677,14.7855188 14.7858734,14.9098015 14.6327894,14.9098015 L11.1038589,14.9098015 L11.1038589,9.9977303 C11.1038589,9.09577271 10.3704377,8.36243252 9.46902414,8.3624325 L6.53097586,8.3624325 C5.6280126,8.3636351 4.89654142,9.09531345 4.89614109,9.9977303 L4.89614109,14.9098015 L1.36684697,14.9098015 C1.21396286,14.909601 1.09013227,14.7856826 1.09013227,14.632891 L1.09013227,6.05847961 C1.09013227,5.88005046 1.17776465,5.71252327 1.32430345,5.61040802 L7.68874142,1.18638239 C7.87554988,1.0559475 8.12393408,1.05580242 8.31089497,1.18601899 L14.6753329,5.61040802 C14.8222354,5.71288668 14.9098677,5.88005046 14.9098677,6.05847961 L14.9098677,14.632891 Z" id="形状"></path>
                </g>
            </g>
        </g>
    </g>
</svg>