<?xml version="1.0" encoding="UTF-8"?>
<svg width="18px" height="18px" viewBox="0 0 18 18" version="1.1" xmlns="http://www.w3.org/2000/svg" xmlns:xlink="http://www.w3.org/1999/xlink">
    <title>2.提示建议性图标SuggestIcon/线Line/info-circle</title>
    <g id="控件" stroke="none" stroke-width="1" fill="none" fill-rule="evenodd">
        <g id="·6.反馈/3.Notification通知提醒框/2.通知提醒框（带功能）/1.信息提示" transform="translate(-21.000000, -21.000000)">
            <g id="2.提示建议性图标SuggestIcon/线Line/info-circle" transform="translate(20.000000, 20.000000)">
                <rect id="Rectangle-29-Copy-13" x="0" y="0" width="20" height="20"></rect>
                <path d="M10,1.25 C14.828125,1.25 18.75,5.171875 18.75,10 C18.75,14.828125 14.828125,18.75 10,18.75 C5.171875,18.75 1.25,14.828125 1.25,10 C1.25,5.171875 5.171875,1.25 10,1.25 Z M10,2.5 C5.8671875,2.5 2.5,5.8671875 2.5,10 C2.5,14.1328125 5.8671875,17.5 10,17.5 C14.1328125,17.5 17.5,14.1328125 17.5,10 C17.5,5.8671875 14.1328125,2.5 10,2.5 Z M10.4296875,6.8359375 C10.6015625,6.8359375 10.7421875,6.9765625 10.7421875,7.1484375 L10.7421875,7.1484375 L10.7421875,13.3984375 L12.59375,13.3984375 C12.765625,13.3984375 12.90625,13.5390625 12.90625,13.7109375 L12.90625,13.7109375 L12.90625,14.3359375 C12.90625,14.5078125 12.765625,14.6484375 12.59375,14.6484375 L12.59375,14.6484375 L7.6328125,14.6484375 C7.4609375,14.6484375 7.3203125,14.5078125 7.3203125,14.3359375 L7.3203125,14.3359375 L7.3203125,13.7109375 C7.3203125,13.5390625 7.4609375,13.3984375 7.6328125,13.3984375 L7.6328125,13.3984375 L9.4921875,13.3984375 L9.4921875,8.0859375 L8.3203125,8.0859375 C8.1484375,8.0859375 8.0078125,7.9453125 8.0078125,7.7734375 L8.0078125,7.7734375 L8.0078125,7.1484375 C8.0078125,6.9765625 8.1484375,6.8359375 8.3203125,6.8359375 L8.3203125,6.8359375 Z M10,4.296875 C10.4314725,4.296875 10.78125,4.64665254 10.78125,5.078125 C10.78125,5.50959746 10.4314725,5.859375 10,5.859375 C9.56852754,5.859375 9.21875,5.50959746 9.21875,5.078125 C9.21875,4.64665254 9.56852754,4.296875 10,4.296875 Z" id="形状结合" fill="#4686F2"></path>
            </g>
        </g>
    </g>
</svg>