<?xml version="1.0" encoding="UTF-8"?>
<svg width="16px" height="16px" viewBox="0 0 16 16" version="1.1" xmlns="http://www.w3.org/2000/svg" xmlns:xlink="http://www.w3.org/1999/xlink">
    <title>工单</title>
    <g id="页面-1" stroke="none" stroke-width="1" fill="none" fill-rule="evenodd" opacity="0.599087028">
        <g id="工单结算-工单月度考核计划" transform="translate(-20.000000, -143.000000)" fill="#FFFFFF" fill-rule="nonzero">
            <g id="侧边导航" transform="translate(0.000000, 131.000000)">
                <g id="工单" transform="translate(20.000000, 12.000000)">
                    <path d="M3.9641791,5.15820896 L11.9402985,5.15820896 C12.2746269,5.15820896 12.5134328,4.91940299 12.5134328,4.58507463 C12.5134328,4.25074627 12.2746269,4.0119403 11.9402985,4.0119403 L3.9641791,4.0119403 C3.62985075,4.0119403 3.39104478,4.25074627 3.39104478,4.58507463 C3.39104478,4.91940299 3.67761194,5.15820896 3.9641791,5.15820896 L3.9641791,5.15820896 Z M11.9880597,7.45074627 L3.9641791,7.45074627 C3.62985075,7.45074627 3.39104478,7.68955224 3.39104478,8.0238806 C3.39104478,8.35820896 3.62985075,8.59701493 3.9641791,8.59701493 L11.9402985,8.59701493 C12.2746269,8.59701493 12.5134328,8.35820896 12.5134328,8.0238806 C12.5134328,7.68955224 12.2746269,7.45074627 11.9880597,7.45074627 L11.9880597,7.45074627 Z M11.9880597,10.841791 L3.9641791,10.841791 C3.62985075,10.841791 3.39104478,11.080597 3.39104478,11.4149254 C3.39104478,11.7492537 3.62985075,11.9880597 3.9641791,11.9880597 L11.9402985,11.9880597 C12.2746269,11.9880597 12.5134328,11.7492537 12.5134328,11.4149254 C12.5134328,11.1283582 12.2746269,10.841791 11.9880597,10.841791 Z M6.30447761,1.71940299 L9.17014925,1.71940299 C9.64776119,1.71940299 10.0298507,1.33731343 10.0298507,0.859701493 C10.0298507,0.382089552 9.64776119,0 9.17014925,0 L6.30447761,0 C5.82686567,0 5.44477612,0.382089552 5.44477612,0.859701493 C5.44477612,1.33731343 5.82686567,1.71940299 6.30447761,1.71940299 Z" id="形状"></path>
                    <path d="M13.6597015,0.573134328 L13.0865672,0.573134328 C12.7522388,0.573134328 12.5134328,0.811940299 12.5134328,1.14626866 C12.5134328,1.48059701 12.7522388,1.71940299 13.0865672,1.71940299 L13.6597015,1.71940299 C14.3283582,1.71940299 14.8059701,2.24477612 14.8059701,2.86567164 L14.8059701,13.7074627 C14.8059701,14.3283582 14.280597,14.8537313 13.6597015,14.8537313 L2.24477612,14.8537313 C1.6238806,14.8537313 1.09850746,14.3283582 1.09850746,13.7074627 L1.09850746,2.86567164 C1.09850746,2.24477612 1.6238806,1.71940299 2.24477612,1.71940299 L2.81791045,1.71940299 C3.15223881,1.71940299 3.39104478,1.48059701 3.39104478,1.14626866 C3.39104478,0.811940299 3.15223881,0.573134328 2.81791045,0.573134328 L2.24477612,0.573134328 C1.00298507,0.573134328 0,1.6238806 0,2.86567164 L0,13.7074627 C0,14.9492537 1.00298507,16 2.29253731,16 L13.7074627,16 C14.9492537,16 16,14.9970149 16,13.7074627 L16,2.86567164 C15.9522388,1.6238806 14.9492537,0.573134328 13.6597015,0.573134328 Z" id="路径"></path>
                    <path d="M3.9641791,5.15820896 L11.9402985,5.15820896 C12.2746269,5.15820896 12.5134328,4.91940299 12.5134328,4.58507463 C12.5134328,4.25074627 12.2746269,4.0119403 11.9402985,4.0119403 L3.9641791,4.0119403 C3.62985075,4.0119403 3.39104478,4.25074627 3.39104478,4.58507463 C3.39104478,4.91940299 3.67761194,5.15820896 3.9641791,5.15820896 L3.9641791,5.15820896 Z M11.9880597,7.45074627 L3.9641791,7.45074627 C3.62985075,7.45074627 3.39104478,7.68955224 3.39104478,8.0238806 C3.39104478,8.35820896 3.62985075,8.59701493 3.9641791,8.59701493 L11.9402985,8.59701493 C12.2746269,8.59701493 12.5134328,8.35820896 12.5134328,8.0238806 C12.5134328,7.68955224 12.2746269,7.45074627 11.9880597,7.45074627 L11.9880597,7.45074627 Z M11.9880597,10.841791 L3.9641791,10.841791 C3.62985075,10.841791 3.39104478,11.080597 3.39104478,11.4149254 C3.39104478,11.7492537 3.62985075,11.9880597 3.9641791,11.9880597 L11.9402985,11.9880597 C12.2746269,11.9880597 12.5134328,11.7492537 12.5134328,11.4149254 C12.5134328,11.1283582 12.2746269,10.841791 11.9880597,10.841791 Z M6.30447761,1.71940299 L9.17014925,1.71940299 C9.64776119,1.71940299 10.0298507,1.33731343 10.0298507,0.859701493 C10.0298507,0.382089552 9.64776119,0 9.17014925,0 L6.30447761,0 C5.82686567,0 5.44477612,0.382089552 5.44477612,0.859701493 C5.44477612,1.33731343 5.82686567,1.71940299 6.30447761,1.71940299 Z" id="形状"></path>
                    <path d="M13.6597015,0.573134328 L13.0865672,0.573134328 C12.7522388,0.573134328 12.5134328,0.811940299 12.5134328,1.14626866 C12.5134328,1.48059701 12.7522388,1.71940299 13.0865672,1.71940299 L13.6597015,1.71940299 C14.3283582,1.71940299 14.8059701,2.24477612 14.8059701,2.86567164 L14.8059701,13.7074627 C14.8059701,14.3283582 14.280597,14.8537313 13.6597015,14.8537313 L2.24477612,14.8537313 C1.6238806,14.8537313 1.09850746,14.3283582 1.09850746,13.7074627 L1.09850746,2.86567164 C1.09850746,2.24477612 1.6238806,1.71940299 2.24477612,1.71940299 L2.81791045,1.71940299 C3.15223881,1.71940299 3.39104478,1.48059701 3.39104478,1.14626866 C3.39104478,0.811940299 3.15223881,0.573134328 2.81791045,0.573134328 L2.24477612,0.573134328 C1.00298507,0.573134328 0,1.6238806 0,2.86567164 L0,13.7074627 C0,14.9492537 1.00298507,16 2.29253731,16 L13.7074627,16 C14.9492537,16 16,14.9970149 16,13.7074627 L16,2.86567164 C15.9522388,1.6238806 14.9492537,0.573134328 13.6597015,0.573134328 Z" id="路径"></path>
                </g>
            </g>
        </g>
    </g>
</svg>