<?xml version="1.0" encoding="UTF-8"?>
<svg width="16px" height="16px" viewBox="0 0 16 16" version="1.1" xmlns="http://www.w3.org/2000/svg" xmlns:xlink="http://www.w3.org/1999/xlink">
    <title>结算</title>
    <g id="页面-1" stroke="none" stroke-width="1" fill="none" fill-rule="evenodd">
        <g id="工单结算-工单月度考核计划" transform="translate(-20.000000, -193.000000)">
            <g id="侧边导航备份-2" transform="translate(0.000000, 181.000000)">
                <g id="结算" transform="translate(20.000000, 12.000000)">
                    <g fill="#FFFFFF" fill-rule="nonzero" id="综合管理-商户中心-商户结算管理">
                        <g>
                            <path d="M14.4,3.09581818 L1.6,3.09581818 C0.717636364,3.09581818 0,3.81345455 0,4.69581818 L0,13.2290909 C0,14.1114545 0.717636364,14.8290909 1.6,14.8290909 L14.4,14.8290909 C15.2823636,14.8290909 16,14.1114545 16,13.2290909 L16,4.69581818 C16,3.81345455 15.2823636,3.09581818 14.4,3.09581818 Z M14.9332727,13.2290909 C14.9332727,13.5229091 14.6936364,13.7623636 14.4,13.7623636 L1.6,13.7623636 C1.30581818,13.7623636 1.06672727,13.5227273 1.06672727,13.2290909 L1.06672727,4.69581818 C1.06672727,4.40163636 1.30581818,4.16254545 1.6,4.16254545 L14.4,4.16254545 C14.6938182,4.16254545 14.9332727,4.40163636 14.9332727,4.69581818 L14.9332727,13.2290909 L14.9332727,13.2290909 Z M1.75981818,2.588 C2.05454545,2.588 2.29309091,2.34945455 2.29309091,2.05472727 L2.29309091,1.49381818 C2.29309091,1.26254545 2.48836364,1.06672727 2.71963636,1.06672727 L13.28,1.06672727 C13.5154545,1.06672727 13.706,1.25836364 13.706,1.49381818 L13.706,2.05472727 C13.706,2.34945455 13.9445455,2.588 14.2392727,2.588 C14.534,2.588 14.7725455,2.34945455 14.7725455,2.05472727 L14.7725455,1.49381818 C14.7725455,0.670363636 14.1027273,0 13.2798182,0 L2.71981818,0 C1.89636364,0 1.22654545,0.670363636 1.22654545,1.49381818 L1.22654545,2.05472727 C1.22654545,2.34945455 1.46509091,2.588 1.75981818,2.588 L1.75981818,2.588 Z" id="形状"></path>
                            <path d="M10.0874545,8.94363636 C10.3821818,8.94363636 10.6207273,8.704 10.6207273,8.40981818 C10.6207273,8.11509091 10.3821818,7.87654545 10.0874545,7.87654545 L8.55363636,7.87654545 L10.2749091,6.15563636 C10.4832727,5.94727273 10.4832727,5.60981818 10.2749091,5.40145455 C10.0665455,5.19309091 9.72909091,5.19309091 9.52072727,5.40145455 L8,6.92181818 L6.47963636,5.40145455 C6.27127273,5.19309091 5.93381818,5.19309091 5.72545455,5.40145455 C5.51709091,5.60981818 5.51709091,5.94727273 5.72545455,6.15563636 L7.44636364,7.87654545 L5.91254545,7.87654545 C5.61781818,7.87654545 5.37927273,8.11509091 5.37927273,8.40981818 C5.37927273,8.704 5.61781818,8.94363636 5.91254545,8.94363636 L7.46672727,8.94363636 L7.46672727,9.76654545 L5.91254545,9.76654545 C5.61781818,9.76654545 5.37927273,10.0050909 5.37927273,10.2998182 C5.37927273,10.5945455 5.61781818,10.8330909 5.91254545,10.8330909 L7.46672727,10.8330909 L7.46672727,12.1456364 C7.46672727,12.4403636 7.70527273,12.6789091 8,12.6789091 C8.29472727,12.6789091 8.53327273,12.4403636 8.53327273,12.1456364 L8.53327273,10.8330909 L10.0874545,10.8330909 C10.3821818,10.8330909 10.6207273,10.5945455 10.6207273,10.2998182 C10.6207273,10.0050909 10.3821818,9.76654545 10.0874545,9.76654545 L8.53327273,9.76654545 L8.53327273,8.94363636 L10.0874545,8.94363636 Z" id="路径"></path>
                        </g>
                    </g>
                    <rect id="矩形" x="0" y="0" width="16" height="16"></rect>
                </g>
            </g>
        </g>
    </g>
</svg>