<?xml version="1.0" encoding="UTF-8"?>
<svg width="16px" height="16px" viewBox="0 0 16 16" version="1.1" xmlns="http://www.w3.org/2000/svg" xmlns:xlink="http://www.w3.org/1999/xlink">
    <title>模板配置-新增</title>
    <g id="页面-1" stroke="none" stroke-width="1" fill="none" fill-rule="evenodd">
        <g id="模板管理-模板配置" transform="translate(-1339.000000, -298.000000)" fill-rule="nonzero">
            <g id="编组-10" transform="translate(1176.000000, 298.000000)">
                <g id="模板配置-新增" transform="translate(163.000000, 0.000000)">
                    <rect id="矩形" fill="#000000" opacity="0" x="0" y="0" width="16" height="16"></rect>
                    <path d="M8,15.9986667 C3.60444444,15.9986667 0.0426666719,12.4173333 0.0426666719,7.99955556 C0.0426666719,3.58088889 3.60444444,0.0004444375 8,0.0004444375 C12.3942222,0.0004444375 15.9568889,3.58088887 15.9568889,7.99955556 C15.9568889,12.4182222 12.3955556,15.9986667 8,15.9986667 Z M8,1.06577778 C4.19111111,1.06577778 1.10355556,4.16977778 1.10355556,7.99866667 C1.10355556,11.8262222 4.19111112,14.9311111 8,14.9311111 C11.8084444,14.9311111 14.8951111,11.8275555 14.896,7.99866667 C14.896,4.16977778 11.8084444,1.06577778 8,1.06577778 Z M11.6622222,8.46577778 L8.54,8.46577778 L8.52622222,12.0395556 C8.52622222,12.172 8.55466666,12.7395556 7.94133333,12.7395556 C7.35911111,12.7395556 7.41733333,12.3648889 7.41733333,12.0822222 L7.41866667,8.46666667 L3.98844444,8.46666667 C3.76444444,8.46666667 3.49822222,8.468 3.49822222,7.78311111 C3.49822222,7.27422222 4.12088889,7.332 4.12088889,7.332 L7.41866667,7.332 L7.41866667,3.88355556 C7.41866667,3.65777778 7.59244445,3.45688889 7.97866667,3.47955556 C8.36488889,3.50177778 8.53866667,3.65866667 8.53866667,3.88355556 L8.53866667,7.332 L11.6613333,7.332 C11.6613333,7.332 12.3728889,7.23911111 12.3658307,7.87244444 C12.3582222,8.50622222 11.8053333,8.46577777 11.6622222,8.46577778 L11.6622222,8.46577778 Z" id="形状" fill="#B7B7B7"></path>
                </g>
            </g>
        </g>
    </g>
</svg>