<?xml version="1.0" encoding="UTF-8"?>
<svg width="16px" height="16px" viewBox="0 0 16 16" version="1.1" xmlns="http://www.w3.org/2000/svg" xmlns:xlink="http://www.w3.org/1999/xlink">
    <title>项目管理</title>
    <g id="页面-1" stroke="none" stroke-width="1" fill="none" fill-rule="evenodd">
        <g id="工单结算-工单月度考核计划" transform="translate(-20.000000, -413.000000)">
            <g id="侧边导航备份-3" transform="translate(0.000000, 401.000000)">
                <g id="项目管理" transform="translate(20.000000, 12.000000)">
                    <g id="项目_项目管理" opacity="0.59562" fill="#FFFFFF" fill-rule="nonzero">
                        <path d="M5.21829225,1.30025416e-07 L3.02236626,1.30025416e-07 C2.33507391,1.30025416e-07 1.77791338,0.557160791 1.77791338,1.24445314 L1.77791338,4.80003279 C1.77791338,5.09458666 2.01669647,5.33336974 2.31125033,5.33336974 L13.6891052,5.33336974 C13.9836591,5.33336974 14.2224422,5.09458666 14.2224422,4.80003279 L14.2224422,3.21353315 C14.2224422,2.5262408 13.6652816,1.96908027 12.9779893,1.96908027 L7.57599713,1.96908027 C7.52457336,1.96904113 7.47568576,1.94673698 7.44195177,1.9079243 L6.15838751,0.42880317 C5.921893,0.156288005 5.57876095,-0.000164645868 5.2179367,1.30025416e-07 L5.21829225,1.30025416e-07 Z M3.02236626,1.06667416 L5.21829225,1.06667416 C5.26971602,1.0667133 5.31860363,1.08901746 5.35233761,1.12783013 L6.63590187,2.60695127 C6.87231505,2.87937265 7.21529699,3.035816 7.57599713,3.03575418 L12.9779893,3.03575418 L13.0099895,3.03895419 C13.0943198,3.05438557 13.1556254,3.12780272 13.1557683,3.21353315 L13.1557683,4.26669586 L2.84458729,4.26669586 L2.84458729,1.24445314 C2.84458729,1.14626852 2.92418165,1.06667416 3.02236626,1.06667416 Z" id="形状"></path>
                        <path d="M15.4668951,4.26669584 L0.533460506,4.26669584 C0.380090183,4.26669584 0.234128028,4.33265403 0.132844142,4.4478236 C0.0315602558,4.56299318 -0.0152411414,4.71619119 0.00439025862,4.86829992 L1.02839719,12.7819536 C1.10864819,13.4023493 1.63697431,13.8667609 2.2625389,13.8667609 L13.7378167,13.8667609 C14.3631269,13.866591 14.8912058,13.4024295 14.9716028,12.7823091 L15.9956097,4.86829992 C16.0152332,4.71625269 15.9684778,4.56311386 15.8672733,4.4479571 C15.7660687,4.33280034 15.6202034,4.26669584 15.4668951,4.26669584 Z M1.14004241,5.33336974 L14.8599576,5.33336974 L13.9141734,12.6450637 C13.9027299,12.733731 13.8272194,12.800087 13.7378167,12.800087 L2.2625389,12.800087 L2.23338314,12.7975981 C2.15605411,12.7847656 2.09625551,12.7228004 2.08618215,12.6450637 L1.14004241,5.33336974 Z" id="形状"></path>
                        <path d="M10.1335256,6.57782262 C10.4180132,6.57796351 10.6523107,6.8013701 10.6659822,7.08552911 C10.6796537,7.36968811 10.467886,7.61455591 10.1847259,7.64200761 L10.1335256,7.64449652 L5.86682999,7.64449652 C5.58234232,7.64435564 5.34804491,7.42094904 5.33437338,7.13679004 C5.32070185,6.85263103 5.53246952,6.60776324 5.81562965,6.58031153 L5.86682999,6.57782262 L10.1335256,6.57782262 Z" id="路径"></path>
                    </g>
                    <rect id="矩形" x="0" y="0" width="16" height="16"></rect>
                </g>
            </g>
        </g>
    </g>
</svg>