<?xml version="1.0" encoding="UTF-8"?>
<svg width="16px" height="16px" viewBox="0 0 16 16" version="1.1" xmlns="http://www.w3.org/2000/svg" xmlns:xlink="http://www.w3.org/1999/xlink">
    <title>其他服务</title>
    <g id="页面-1" stroke="none" stroke-width="1" fill="none" fill-rule="evenodd" opacity="0.602654">
        <g id="工单结算-工单月度考核计划" transform="translate(-20.000000, -453.000000)" fill="#FFFFFF" fill-rule="nonzero">
            <g id="侧边导航备份-5" transform="translate(0.000000, 441.000000)">
                <g id="其他服务" transform="translate(20.000000, 12.000000)">
                    <path d="M15.4154958,16 L9.9494179,16 C9.19577144,16 8.58343369,15.3855212 8.58343369,14.6340158 L8.58343369,9.9494179 C8.58343369,9.19577144 9.19791248,8.58343369 9.9494179,8.58343369 L14.6318747,8.58343369 C15.3855212,8.58343369 15.9978719,9.19791248 15.9978719,9.9494179 L15.9978719,13.0731968 C15.9978719,13.396494 15.7345109,13.6577011 15.4133547,13.6577011 C15.0900575,13.6577011 14.8288505,13.394353 14.8288505,13.0731968 L14.8288505,9.9494179 C14.8288505,9.84236585 14.7410678,9.75458317 14.6340158,9.75458317 L9.9494179,9.75458317 C9.84236585,9.75458317 9.75458317,9.84236585 9.75458317,9.9494179 L9.75458317,14.6318747 C9.75458317,14.7389268 9.84236585,14.8267095 9.9494179,14.8267095 L15.4133547,14.8267095 C15.7366519,14.8267095 15.9978719,15.0900575 15.9978719,15.4112137 C16,15.7366519 15.7366519,16 15.4154958,16 L15.4154958,16 Z M6.04844105,16 L1.36598421,16 C0.612337749,16 0,15.3855212 0,14.6340158 L0,9.9494179 C0,9.19577144 0.61447879,8.58343369 1.36598421,8.58343369 L6.04844105,8.58343369 C6.80208752,8.58343369 7.41442526,9.19791248 7.41442526,9.9494179 L7.41442526,14.6318747 C7.41442526,15.3855212 6.79994647,16 6.04844105,16 L6.04844105,16 Z M1.36598421,9.75458317 C1.25893216,9.75458317 1.17114947,9.84236585 1.17114947,9.9494179 L1.17114947,14.6318747 C1.17114947,14.7389268 1.25893216,14.8267095 1.36598421,14.8267095 L6.04844105,14.8267095 C6.15549311,14.8267095 6.24327579,14.7389268 6.24327579,14.6318747 L6.24327579,9.9494179 C6.24327579,9.84236585 6.15549311,9.75458317 6.04844105,9.75458317 L1.36598421,9.75458317 Z M14.6318747,7.41442526 L9.9494179,7.41442526 C9.19577144,7.41442526 8.58343369,6.79994647 8.58343369,6.04844105 L8.58343369,1.36598421 C8.58343369,0.612337749 9.19791248,-4.4408921e-16 9.9494179,-4.4408921e-16 L14.6318747,-4.4408921e-16 C15.3855212,-4.4408921e-16 15.9978645,0.61447879 15.9978645,1.36598421 L15.9978645,6.04844105 C16,6.79994647 15.3855212,7.41442526 14.6318747,7.41442526 Z M9.9494179,1.16900843 C9.84236585,1.16900843 9.75458317,1.25679111 9.75458317,1.36384317 L9.75458317,6.04630001 C9.75458317,6.15335207 9.84236585,6.24113475 9.9494179,6.24113475 L14.6318747,6.24113475 C14.7389268,6.24113475 14.8267095,6.15335207 14.8267095,6.04630001 L14.8267095,1.36598421 C14.8267095,1.25893216 14.7389268,1.17114947 14.6318747,1.17114947 L9.9494179,1.17114947 L9.9494179,1.16900843 Z M6.82778001,7.41442526 L1.36598421,7.41442526 C0.612337749,7.41442526 0,6.79994647 0,6.04844105 L0,1.36598421 C0,0.612337749 0.61447879,-4.4408921e-16 1.36598421,-4.4408921e-16 L6.04844105,-4.4408921e-16 C6.80208752,-4.4408921e-16 7.41442526,0.61447879 7.41442526,1.36598421 L7.41442526,4.48762211 C7.41442526,4.81091931 7.15107721,5.07212632 6.82992105,5.07212632 C6.50662385,5.07212632 6.24541683,4.80877827 6.24541683,4.48762211 L6.24541683,1.36598421 C6.24541683,1.25893216 6.15763415,1.17114947 6.0505821,1.17114947 L1.36598421,1.17114947 C1.25893216,1.17114947 1.17114947,1.25893216 1.17114947,1.36598421 L1.17114947,6.04844105 C1.17114947,6.15549311 1.25893216,6.24327579 1.36598421,6.24327579 L6.82992105,6.24327579 C7.15321825,6.24327579 7.41442526,6.50662385 7.41442526,6.82778001 C7.41442526,7.15107721 7.15107721,7.41442526 6.82778001,7.41442526 Z" id="形状"></path>
                </g>
            </g>
        </g>
    </g>
</svg>