<?xml version="1.0" encoding="UTF-8"?>
<svg width="24px" height="24px" viewBox="0 0 24 24" version="1.1" xmlns="http://www.w3.org/2000/svg" xmlns:xlink="http://www.w3.org/1999/xlink">
    <title>更多</title>
    <g id="页面-1" stroke="none" stroke-width="1" fill="none" fill-rule="evenodd">
        <g id="模板管理-模板列表" transform="translate(-554.000000, -424.000000)" fill-rule="nonzero">
            <g id="编组-4" transform="translate(260.000000, 220.000000)">
                <g id="更多" transform="translate(294.000000, 204.000000)">
                    <rect id="矩形" fill="#000000" opacity="0" x="0" y="0" width="24" height="24"></rect>
                    <path d="M3.375,12 C3.375,13.0355339 4.21446609,13.875 5.25,13.875 C6.28553391,13.875 7.125,13.0355339 7.125,12 C7.125,10.9644661 6.28553391,10.125 5.25,10.125 C4.21446609,10.125 3.375,10.9644661 3.375,12 Z M10.125,12 C10.125,13.0355339 10.9644661,13.875 12,13.875 C13.0355339,13.875 13.875,13.0355339 13.875,12 C13.875,10.9644661 13.0355339,10.125 12,10.125 C10.9644661,10.125 10.125,10.9644661 10.125,12 Z M16.875,12 C16.875,13.0355339 17.7144661,13.875 18.75,13.875 C19.7855339,13.875 20.625,13.0355339 20.625,12 C20.625,10.9644661 19.7855339,10.125 18.75,10.125 C17.7144661,10.125 16.875,10.9644661 16.875,12 Z" id="形状" fill="#A5A5A5"></path>
                </g>
            </g>
        </g>
    </g>
</svg>