<?xml version="1.0" encoding="UTF-8"?>
<svg width="16px" height="16px" viewBox="0 0 16 16" version="1.1" xmlns="http://www.w3.org/2000/svg" xmlns:xlink="http://www.w3.org/1999/xlink">
    <title>查询</title>
    <g id="页面-1" stroke="none" stroke-width="1" fill="none" fill-rule="evenodd">
        <g id="工单结算-工单月度考核计划" transform="translate(-20.000000, -363.000000)">
            <g id="侧边导航备份-4" transform="translate(0.000000, 351.000000)">
                <g id="查询" transform="translate(20.000000, 12.000000)">
                    <rect id="矩形" x="0" y="0" width="16" height="16"></rect>
                    <g id="综合查询-(1)" opacity="0.59562" transform="translate(0.000000, 1.000000)" fill="#FFFFFF" fill-rule="nonzero">
                        <path d="M15.3450883,13.027364 C15.135859,13.0268897 14.9392602,12.9271873 14.8152538,12.7586657 L12.1342236,9.05754728 C12.0317985,8.91854506 11.9895863,8.74418772 12.0170905,8.57372938 C12.0441631,8.40071953 12.1397301,8.24588694 12.2822491,8.14413384 C12.3928284,8.06278836 12.5266214,8.01913077 12.6638972,8.01959567 C12.8735463,8.01959567 13.0719326,8.12193003 13.1950189,8.29264196 L15.8747619,11.9919905 C15.9770925,12.1313275 16.0189258,12.3036484 15.9920559,12.4756475 C15.9649596,12.6486514 15.8694719,12.8035073 15.7270582,12.9054039 C15.6154733,12.9847049 15.4819818,13.027364 15.3450883,13.027364 L15.3450883,13.027364 Z M0.652759962,2.54137136 C0.292434354,2.5409281 0.000443259955,2.248937 -4.4408921e-16,1.8886114 C0.000443435136,1.52831191 0.292460382,1.23636695 0.652759962,1.23601233 L3.67135243,1.23601233 C4.03165201,1.23636695 4.32366896,1.52831191 4.32411239,1.8886114 C4.32366913,2.248937 4.03167804,2.5409281 3.67135243,2.54137136 L0.652759962,2.54137136 L0.652759962,2.54137136 Z M0.652759962,6.33532746 C0.292397645,6.33497269 0.000354774875,6.04292982 -2.22044605e-16,5.6825675 C0.000443259955,5.32224189 0.292434354,5.0302508 0.652759962,5.02980754 L2.69245383,5.02980754 C3.05277944,5.0302508 3.34477054,5.32224189 3.3452138,5.6825675 C3.34477054,6.04289311 3.05277944,6.3348842 2.69245383,6.33532746 L0.652759962,6.33532746 L0.652759962,6.33532746 Z" id="形状"></path>
                        <path d="M0.652759962,12.7810304 C0.292832914,12.7810304 0,12.4880366 0,12.1281095 C0,11.7681825 0.292832914,11.4751887 0.652759962,11.4751887 L7.09830201,11.4751887 C7.45806816,11.4751887 7.75090107,11.7681825 7.75090107,12.1281095 C7.75090107,12.4880366 7.45806816,12.7810304 7.09830201,12.7810304 L0.652759962,12.7810304 Z M9.93749409,9.79479223 C8.36858544,9.79479223 6.88414783,9.03727423 5.96606837,7.76843887 C5.1985887,6.70876987 4.88998786,5.41370827 5.09722347,4.1220255 C5.30429817,2.83114723 6.00146576,1.69827 7.06016937,0.932077511 C7.89635215,0.322437999 8.88731803,0 9.92526591,0 C11.4901521,0 12.9745897,0.757343146 13.8965307,2.02585671 C14.6641713,3.0858475 14.9726112,4.38090911 14.7655365,5.67275277 C14.5583009,6.96363105 13.8611333,8.09650827 12.8024297,8.86270076 C11.9711449,9.47069013 10.967387,9.79725249 9.93749409,9.79479223 L9.93749409,9.79479223 Z M9.92526591,1.30535903 C9.16293495,1.30535903 8.43728855,1.5426824 7.82700545,1.9917465 C7.04778029,2.55392134 6.53660986,3.38447271 6.38584918,4.33183546 C6.23460581,5.28080718 6.46082728,6.2294571 7.02251942,7.00288997 C7.36893111,7.48172005 7.80641061,7.85435798 8.32289064,8.11098902 C8.8233068,8.35970249 9.37449533,8.48922546 9.93331077,8.48941925 C10.6901712,8.48941925 11.4161394,8.25322215 12.0330193,7.80624971 C13.6371644,6.64264112 13.9974133,4.39329819 12.8360572,2.79188831 C12.4893238,2.31305822 12.0518443,1.9404203 11.5358469,1.68395015 C11.0354274,1.43506848 10.4841593,1.30548468 9.92526591,1.30535903 L9.92526591,1.30535903 Z M0.652759962,9.59864458 C0.292832914,9.59864458 0,9.30597256 0,8.94604551 C0,8.58611847 0.292832914,8.29344645 0.652759962,8.29344645 L3.67135243,8.29344645 C4.03127948,8.29344645 4.32411239,8.58611847 4.32411239,8.94604551 C4.32411239,9.30597256 4.03127948,9.59864458 3.67135243,9.59864458 L0.652759962,9.59864458 L0.652759962,9.59864458 Z" id="形状"></path>
                    </g>
                </g>
            </g>
        </g>
    </g>
</svg>